<?xml version="1.0" encoding="UTF-8" standalone="no"?>
<!-- Created with Inkscape (http://www.inkscape.org/) -->

<svg
   width="72.757881mm"
   height="72.966652mm"
   viewBox="0 0 72.757879 72.966651"
   version="1.1"
   id="svg5"
   inkscape:version="1.1.1 (3bf5ae0d25, 2021-09-20)"
   sodipodi:docname="thangs_logo.svg"
   xmlns:inkscape="http://www.inkscape.org/namespaces/inkscape"
   xmlns:sodipodi="http://sodipodi.sourceforge.net/DTD/sodipodi-0.dtd"
   xmlns="http://www.w3.org/2000/svg"
   xmlns:svg="http://www.w3.org/2000/svg">
  <sodipodi:namedview
     id="namedview7"
     pagecolor="#ffffff"
     bordercolor="#999999"
     borderopacity="1"
     inkscape:pageshadow="0"
     inkscape:pageopacity="0"
     inkscape:pagecheckerboard="0"
     inkscape:document-units="mm"
     showgrid="false"
     inkscape:zoom="0.76435185"
     inkscape:cx="1.308298"
     inkscape:cy="253.15566"
     inkscape:window-width="1920"
     inkscape:window-height="1017"
     inkscape:window-x="-8"
     inkscape:window-y="-8"
     inkscape:window-maximized="1"
     inkscape:current-layer="layer1" />
  <defs
     id="defs2" />
  <g
     inkscape:label="Ebene 1"
     inkscape:groupmode="layer"
     id="layer1"
     transform="translate(-43.602052,-103.18166)">
    <path
       style="fill:#000000;stroke-width:0.264583"
       d="m 75.178825,175.98473 c -2.81791,-0.90565 -5.91565,-3.49286 -7.17912,-5.99595 -1.23834,-2.45331 -1.2932,-3.27395 -1.20213,-17.98406 l 0.0853,-13.77261 1.00624,-2.03542 c 1.29056,-2.61057 3.09459,-4.4034 5.72497,-5.68943 l 2.00004,-0.97785 7.34219,-0.088 7.34219,-0.0879 -0.006,18.3442 c -0.004,11.69299 -0.10589,18.77589 -0.28068,19.53482 -0.77342,3.35816 -3.31973,6.52568 -6.48827,8.07118 -1.39937,0.68257 -1.87043,0.76785 -4.60167,0.83318 -1.67349,0.04 -3.35764,-0.0285 -3.74257,-0.15216 z m 6.47823,-6.5759 c 3.95651,-2.64997 3.09713,-8.69198 -1.452,-10.20844 -2.52696,-0.84237 -5.48831,0.41416 -6.81653,2.89233 -1.53223,2.85879 0.0433,6.76857 3.21482,7.97764 1.36922,0.52199 3.75243,0.21003 5.05371,-0.66153 z m -1.05428,-22.91299 c 5.51297,-2.30347 4.3418,-10.46964 -1.57186,-10.96005 -5.38815,-0.44682 -8.34395,6.07912 -4.43323,9.78788 1.5317,1.4526 4.12323,1.95846 6.00509,1.17217 z m 12.71569,-19.9871 c -0.0603,-0.0606 -0.10828,-3.21578 -0.10671,-7.01145 0.003,-7.27581 0.10654,-8.09441 1.32588,-10.48451 0.89301,-1.75044 3.17239,-3.8614 5.21339,-4.82818 1.733365,-0.82106 1.905215,-0.84881 5.231825,-0.84495 3.18029,0.004 3.55561,0.058 4.97875,0.72093 2.00504,0.93392 4.60179,3.53136 5.62358,5.62507 0.73547,1.50702 0.77475,1.76189 0.77475,5.02709 0,3.32268 -0.0289,3.50049 -0.84894,5.23182 -1.11655,2.35719 -3.21631,4.45671 -5.56599,5.56538 l -1.78715,0.84325 -7.36491,0.1329 c -4.050695,0.0731 -7.414205,0.0833 -7.474475,0.0226 z m 13.847515,-6.54469 c 1.47741,-0.52609 2.86571,-2.21854 3.27526,-3.99281 0.45154,-1.9562 -0.0501,-3.54835 -1.60934,-5.10756 -1.96941,-1.96942 -4.35468,-2.31003 -6.75359,-0.9644 -2.483185,1.39291 -3.530155,4.81189 -2.250365,7.3488 0.688655,1.36512 1.167615,1.86525 2.401665,2.50788 1.79966,0.93715 2.77366,0.97821 4.93637,0.20809 z m -56.009571,5.98609 c -2.939743,-1.05719 -5.272604,-3.146 -6.657591,-5.96113 -0.883648,-1.7961 -0.899256,-1.88788 -0.896587,-5.27189 0.0026,-3.27406 0.04117,-3.52228 0.782058,-5.03147 1.015285,-2.0681 3.519579,-4.57691 5.565226,-5.57525 l 1.5875,-0.77474 14.81667,-0.077 14.81667,-0.077 1.76364,0.68695 c 2.54396,0.99088 4.86159,3.18511 6.20356,5.87325 l 1.02863,2.06047 0.0879,7.34219 0.088,7.34219 -18.87337,-0.01 c -18.051018,-0.009 -18.936064,-0.0321 -20.312306,-0.52702 z m 6.920204,-6.32208 c 1.739162,-1.10294 2.588532,-2.66176 2.588532,-4.75067 0,-2.40014 -0.82015,-3.80051 -3.042713,-5.19529 -1.021181,-0.64085 -3.878795,-0.67925 -5.027084,-0.0676 -0.880052,0.4688 -2.307267,1.89885 -2.711551,2.71694 -1.276585,2.58321 -0.155609,5.98753 2.459273,7.46861 1.623968,0.91982 4.130446,0.84461 5.733543,-0.17204 z m 22.905842,0.26828 c 3.46758,-1.78364 4.27428,-6.16425 1.67842,-9.11436 -0.70097,-0.79663 -2.38566,-1.52893 -3.83939,-1.6689 -1.80578,-0.17386 -3.91791,0.86921 -5.04085,2.48943 -1.49342,2.15476 -1.09029,5.76921 0.81448,7.30251 1.98213,1.59558 4.46381,1.98074 6.38734,0.99132 z"
       id="path1599" />
  </g>
</svg>
