<?xml version="1.0" encoding="UTF-8" standalone="no"?>
<!-- Created with Inkscape (http://www.inkscape.org/) -->

<svg
   width="122.50208mm"
   height="122.78578mm"
   viewBox="0 0 122.50208 122.78578"
   version="1.1"
   id="svg5"
   xmlns="http://www.w3.org/2000/svg"
   xmlns:svg="http://www.w3.org/2000/svg">
  <defs
     id="defs2" />
  <g
     id="layer1"
     transform="translate(-35.325883,-65.292777)">
    <g
       id="g1034"
       transform="translate(-6.5769254,-5.8846156)"
       style="fill:#000000">
      <path
         style="fill:#000000;fill-opacity:1;stroke-width:0.264583"
         d="m 98.606321,174.72951 c 0.190995,-0.0764 0.419198,-0.067 0.507119,0.0209 0.08792,0.0879 -0.06835,0.15045 -0.347266,0.13896 -0.308226,-0.0127 -0.370919,-0.0754 -0.159853,-0.15985 z m 8.995829,0 c 0.191,-0.0764 0.4192,-0.067 0.50712,0.0209 0.0879,0.0879 -0.0683,0.15045 -0.34726,0.13896 -0.30823,-0.0127 -0.37092,-0.0754 -0.15986,-0.15985 z m -4.49791,-5.55625 c 0.19099,-0.0764 0.4192,-0.067 0.50712,0.0209 0.0879,0.0879 -0.0684,0.15045 -0.34727,0.13896 -0.30823,-0.0127 -0.37092,-0.0754 -0.15985,-0.15985 z m -29.855952,-6.63228 -1.712148,-1.78594 1.785938,1.71215 c 1.658855,1.59032 1.906886,1.85973 1.712147,1.85973 -0.04058,0 -0.844256,-0.80367 -1.785937,-1.78594 z m 59.803472,0.0662 c 0.93748,-0.94589 1.76404,-1.71979 1.8368,-1.71979 0.0728,0 -0.63474,0.7739 -1.57221,1.71979 -0.93748,0.94588 -1.76404,1.71979 -1.8368,1.71979 -0.0728,0 0.63474,-0.77391 1.57221,-1.71979 z m -55.707235,-4.16719 -1.045885,-1.12448 1.124479,1.04589 c 1.045755,0.97266 1.246063,1.20307 1.045885,1.20307 -0.04323,0 -0.549243,-0.50602 -1.124479,-1.12448 z m 51.606195,0.0661 c 0.56839,-0.58209 1.09297,-1.05834 1.16573,-1.05834 0.0728,0 -0.33276,0.47625 -0.90115,1.05834 -0.56838,0.58208 -1.09296,1.05833 -1.16572,1.05833 -0.0728,0 0.33275,-0.47625 0.90114,-1.05833 z M 61.105987,137.18508 c 0.0127,-0.30823 0.07539,-0.37092 0.159853,-0.15985 0.07643,0.19099 0.06703,0.4192 -0.02089,0.50712 -0.08792,0.0879 -0.150453,-0.0684 -0.138965,-0.34727 z m 84.137493,0 c 0.0127,-0.30823 0.0754,-0.37092 0.15985,-0.15985 0.0764,0.19099 0.067,0.4192 -0.0209,0.50712 -0.0879,0.0879 -0.15045,-0.0684 -0.13897,-0.34727 z m -78.581242,-4.49792 c 0.0127,-0.30822 0.07539,-0.37092 0.15985,-0.15985 0.07643,0.191 0.06703,0.4192 -0.02087,0.50712 -0.08792,0.0879 -0.150453,-0.0683 -0.138965,-0.34727 z m 73.024992,0 c 0.0127,-0.30822 0.0754,-0.37092 0.15985,-0.15985 0.0764,0.191 0.067,0.4192 -0.0209,0.50712 -0.0879,0.0879 -0.15045,-0.0683 -0.13897,-0.34727 z m -78.581243,-4.49791 c 0.0127,-0.30823 0.07539,-0.37092 0.159853,-0.15986 0.07643,0.191 0.06703,0.4192 -0.02089,0.50712 -0.08792,0.0879 -0.150453,-0.0683 -0.138965,-0.34726 z m 84.137493,0 c 0.0127,-0.30823 0.0754,-0.37092 0.15985,-0.15986 0.0764,0.191 0.067,0.4192 -0.0209,0.50712 -0.0879,0.0879 -0.15045,-0.0683 -0.13897,-0.34726 z m -62.609337,-4.41824 c -0.0716,-0.18658 -0.09477,-2.53807 -0.05149,-5.22552 l 0.07869,-4.88628 0.0598,5.08924 0.05979,5.08923 7.739062,0.0743 7.739063,0.0743 -7.747365,0.062 c -6.102712,0.0488 -7.775003,-0.01 -7.877548,-0.27725 z m 33.412437,0.14097 7.73337,-0.0743 0.0779,-5.08925 0.0779,-5.08924 0.0601,5.22552 0.0601,5.22552 -7.87135,-0.062 -7.87136,-0.062 z M 77.356973,106.91234 c 0.568389,-0.58209 1.092968,-1.05834 1.165728,-1.05834 0.07276,0 -0.332756,0.47625 -0.901144,1.05834 -0.568389,0.58208 -1.092968,1.05833 -1.165728,1.05833 -0.07276,0 0.332756,-0.47625 0.901144,-1.05833 z m 51.581297,-0.0661 -1.04588,-1.12448 1.12448,1.04589 c 1.04575,0.97266 1.24606,1.20307 1.04588,1.20307 -0.0432,0 -0.54924,-0.50601 -1.12448,-1.12448 z M 73.255932,102.8113 c 0.937477,-0.94589 1.764035,-1.7198 1.836795,-1.7198 0.07276,0 -0.634735,0.77391 -1.572212,1.7198 -0.937477,0.94588 -1.764035,1.71979 -1.836795,1.71979 -0.07276,0 0.634735,-0.77391 1.572212,-1.71979 z m 59.788188,-0.0662 -1.71215,-1.78594 1.78594,1.71215 c 1.65885,1.59032 1.90688,1.85973 1.71215,1.85973 -0.0406,0 -0.84426,-0.80367 -1.78594,-1.78594 z m -29.93988,-6.596884 c 0.19099,-0.07643 0.4192,-0.06703 0.50712,0.02087 0.0879,0.08792 -0.0684,0.150453 -0.34727,0.138965 -0.30823,-0.0127 -0.37092,-0.07539 -0.15985,-0.159851 z m -4.497919,-5.556251 c 0.190995,-0.07643 0.419198,-0.06703 0.507119,0.02089 0.08792,0.08792 -0.06835,0.150453 -0.347266,0.138964 -0.308226,-0.0127 -0.370919,-0.07539 -0.159853,-0.159852 z m 8.995829,0 c 0.191,-0.07643 0.4192,-0.06703 0.50712,0.02089 0.0879,0.08792 -0.0683,0.150453 -0.34726,0.138964 -0.30823,-0.0127 -0.37092,-0.07539 -0.15986,-0.159852 z"
         id="path1042" />
      <path
         style="fill:#000000;fill-opacity:1;stroke-width:0.264583"
         d="m 100.72052,160.16067 c 1.49933,-0.0473 3.88058,-0.0471 5.29167,5.2e-4 1.41109,0.0475 0.18437,0.0861 -2.72605,0.0859 -2.91042,-2.4e-4 -4.064943,-0.0391 -2.56562,-0.0863 z m -7.667332,-46.56753 c 5.722501,-0.0398 15.009372,-0.0398 20.637502,4e-5 5.62812,0.0398 0.94607,0.0724 -10.40455,0.0724 -11.350626,-2e-5 -15.955455,-0.0326 -10.232952,-0.0724 z"
         id="path1040" />
      <path
         style="fill:#000000;fill-opacity:1;stroke-width:0.264583"
         d="m 44.382601,191.11598 c -0.329108,-0.41965 -0.319749,-0.429 0.09989,-0.0999 0.254661,0.19972 0.463021,0.40808 0.463021,0.46302 0,0.21777 -0.217273,0.0776 -0.562916,-0.36312 z m 116.979579,0.36312 c 0,-0.0549 0.20836,-0.2633 0.46302,-0.46302 0.41964,-0.3291 0.429,-0.31975 0.0999,0.0999 -0.34564,0.44073 -0.56291,0.58089 -0.56291,0.36312 z m -58.66772,-16.49413 c 0.40219,-0.0608 0.9975,-0.0592 1.32292,0.004 0.32542,0.0628 -0.004,0.11256 -0.73124,0.11058 -0.72761,-0.002 -0.99386,-0.0534 -0.59168,-0.11419 z m -2.50064,-6.07629 c 0.191,-0.0764 0.4192,-0.067 0.50712,0.0209 0.0879,0.0879 -0.0684,0.15046 -0.34727,0.13897 -0.30822,-0.0127 -0.370915,-0.0754 -0.15985,-0.15985 z m 5.82083,0 c 0.191,-0.0764 0.4192,-0.067 0.50712,0.0209 0.0879,0.0879 -0.0684,0.15046 -0.34726,0.13897 -0.30823,-0.0127 -0.37092,-0.0754 -0.15986,-0.15985 z m -39.087829,-33.3111 c 0.0127,-0.30823 0.07539,-0.37092 0.159851,-0.15985 0.07643,0.19099 0.06703,0.4192 -0.02088,0.50712 -0.08792,0.0879 -0.150453,-0.0684 -0.138964,-0.34727 z m 72.495829,0 c 0.0127,-0.30823 0.0754,-0.37092 0.15985,-0.15985 0.0764,0.19099 0.067,0.4192 -0.0209,0.50712 -0.0879,0.0879 -0.15046,-0.0684 -0.13897,-0.34727 z m 6.1402,-2.88837 c 0.002,-0.7276 0.0534,-0.99386 0.11419,-0.59167 0.0608,0.40218 0.0592,0.99749 -0.004,1.32291 -0.0628,0.32543 -0.11256,-0.004 -0.11058,-0.73124 z m -78.636029,-2.93246 c 0.0127,-0.30823 0.07539,-0.37092 0.159851,-0.15986 0.07643,0.191 0.06703,0.4192 -0.02088,0.50712 -0.08792,0.0879 -0.150453,-0.0684 -0.138964,-0.34726 z m 72.495829,0 c 0.0127,-0.30823 0.0754,-0.37092 0.15985,-0.15986 0.0764,0.191 0.067,0.4192 -0.0209,0.50712 -0.0879,0.0879 -0.15046,-0.0684 -0.13897,-0.34726 z M 100.19382,96.412849 c 0.191,-0.07643 0.4192,-0.06703 0.50712,0.02088 0.0879,0.08792 -0.0684,0.150452 -0.34727,0.138964 -0.30822,-0.0127 -0.370915,-0.07539 -0.15985,-0.159851 z m 5.82083,0 c 0.191,-0.07643 0.4192,-0.06703 0.50712,0.02088 0.0879,0.08792 -0.0684,0.150452 -0.34726,0.138964 -0.30823,-0.0127 -0.37092,-0.07539 -0.15986,-0.159851 z M 44.151767,74.268695 c 0,-0.05494 0.208359,-0.263302 0.46302,-0.463021 0.419644,-0.329108 0.429003,-0.319749 0.0999,0.0999 -0.345643,0.440729 -0.562915,0.580887 -0.562915,0.363126 z M 161.59301,73.905569 c -0.32911,-0.419644 -0.31975,-0.429003 0.0999,-0.0999 0.44073,0.345643 0.58088,0.562916 0.36312,0.562916 -0.0549,0 -0.2633,-0.20836 -0.46302,-0.463021 z"
         id="path1038" />
      <path
         style="fill:#000000;fill-opacity:1;stroke-width:0.264583"
         d="m 49.17885,193.59235 c -2.966222,-0.65952 -5.213201,-2.48895 -6.53501,-5.32064 l -0.741032,-1.5875 V 132.57692 78.469631 l 0.741032,-1.5875 c 1.36806,-2.930771 3.792165,-4.821157 6.924971,-5.400287 2.195903,-0.405935 104.974169,-0.405935 107.170069,0 3.13281,0.57913 5.55691,2.469516 6.92497,5.400287 l 0.74104,1.5875 v 54.107289 54.10729 l -0.74104,1.5875 c -1.36806,2.93077 -3.79216,4.82116 -6.92497,5.40029 -2.35996,0.43626 -105.583467,0.35982 -107.56003,-0.0796 z m 61.98007,-19.23782 c 8.03779,-1.46633 15.78884,-5.50095 21.71789,-11.30472 6.29793,-6.16485 10.37423,-13.73613 12.09016,-22.45616 0.80332,-4.08232 0.80332,-11.68655 0,-15.76888 -2.56909,-13.05564 -10.96502,-24.16989 -22.63083,-29.957953 -6.66338,-3.306074 -11.26377,-4.358645 -19.05,-4.358645 -7.786228,0 -12.38662,1.052571 -19.05,4.358645 -11.648617,5.779523 -20.115066,16.977823 -22.609801,29.905243 -0.430277,2.22964 -0.54124,3.85689 -0.54124,7.93715 0,7.78623 1.052571,12.38662 4.358645,19.05 5.60116,11.28912 16.308233,19.61254 28.824599,22.40753 4.762899,1.06359 11.668937,1.14037 16.890577,0.18779 z m -12.177605,-5.55744 c -2.998472,-0.34866 -6.289876,-1.20686 -9.321217,-2.43043 -18.672341,-7.53687 -27.621591,-28.89943 -19.9283,-47.57043 6.82802,-16.57104 25.060793,-25.719779 42.461022,-21.30585 21.43814,5.43823 33.08509,28.65486 24.64766,49.13181 -6.16149,14.95342 -21.69891,24.05401 -37.859165,22.1749 z m 9.464195,-26.56288 v -18.12396 h 7.80521 7.80521 v -5.29166 -5.29167 H 103.28614 82.516348 v 5.29167 5.29166 h 7.805208 7.805208 v 18.12396 18.12396 h 5.159376 5.15937 z"
         id="path1036" />
    </g>
  </g>
</svg>
